<svg width="1020" height="323" viewBox="0 0 1020 323" fill="none" xmlns="http://www.w3.org/2000/svg">
<g clip-path="url(#clip0_25_46)">
<mask id="mask0_25_46" style="mask-type:luminance" maskUnits="userSpaceOnUse" x="150" y="0" width="429" height="323">
<path d="M150 0H579V323H150V0Z" fill="white"/>
</mask>
<g mask="url(#mask0_25_46)">
<path d="M41.9645 401.299L307.211 241.159L291.391 214.914L26.1445 375.055L41.9645 401.299Z" fill="#A57857"/>
<path d="M41.9645 401.299L307.211 241.159L300.282 229.664L35.0343 389.803L41.9645 401.299Z" fill="#885D3E"/>
<path d="M408.201 269.299C343.477 269.299 291.007 216.787 291.007 152.011C291.007 87.2342 343.477 34.7224 408.201 34.7224C472.926 34.7224 525.396 87.2342 525.396 152.011C525.396 216.787 472.926 269.299 408.201 269.299Z" fill="white" fill-opacity="0.5"/>
<path fill-rule="evenodd" clip-rule="evenodd" d="M510.516 94.7716C501.032 91.8333 491.2 92.1116 483.016 99.1321C466.485 113.312 463.479 129.535 460.588 145.137C457.361 162.558 454.276 179.206 432.667 191.37C411.5 203.287 389.649 197.186 369.116 191.453C349.915 186.092 331.867 181.052 316.609 191.37C310.544 195.472 306.305 199.983 303.457 204.673C322.735 243.003 362.4 269.299 408.201 269.299C472.926 269.299 525.396 216.787 525.396 152.01C525.396 131.225 519.993 111.702 510.516 94.7716Z" fill="#CCCBB9" fill-opacity="0.5"/>
<path d="M314.723 230.222C314.82 229.821 314.742 229.399 314.508 229.06L302.617 211.867C302.382 211.528 302.015 211.305 301.606 211.256L273.542 207.845C272.308 207.695 271.476 209.074 272.183 210.097L305.444 258.19C306.151 259.213 307.734 258.919 308.028 257.71L314.723 230.222Z" fill="#BABABA"/>
<path fill-rule="evenodd" clip-rule="evenodd" d="M408.201 278.879C338.19 278.879 281.434 222.078 281.434 152.01C281.434 81.9425 338.19 25.1414 408.201 25.1414C478.213 25.1414 534.969 81.9425 534.969 152.01C534.969 222.078 478.213 278.879 408.201 278.879ZM408.201 263.035C346.933 263.035 297.266 213.328 297.266 152.01C297.266 90.693 346.933 40.9856 408.201 40.9856C469.469 40.9856 519.137 90.693 519.137 152.01C519.137 213.328 469.469 263.035 408.201 263.035Z" fill="#9D9D9D"/>
<path fill-rule="evenodd" clip-rule="evenodd" d="M314.164 237.093C337.361 262.756 370.9 278.88 408.201 278.88C478.213 278.88 534.969 222.079 534.969 152.011C534.969 119.91 523.055 90.5923 503.412 68.2466C503.673 71.1165 504.146 74.4344 504.648 77.9615C505.694 85.3122 506.87 93.5693 506.532 100.56C514.583 115.941 519.137 133.444 519.137 152.011C519.137 213.329 469.469 263.036 408.201 263.036C383.431 263.036 360.558 254.912 342.095 241.18C331.214 241.49 321.202 239.097 314.164 237.093Z" fill="#696969"/>
<path d="M428.808 54.6055C414.661 49.5716 393.193 49.0146 375.734 58.1004M359.673 68.5835C335.738 76.3665 307.683 120.169 309.048 152.965" stroke="white" stroke-width="7" stroke-linecap="round"/>
</g>
</g>
<path fill-rule="evenodd" clip-rule="evenodd" d="M370.036 224.7C383.036 231.7 397.836 235.2 414.436 235.2C423.636 235.2 433.236 233.5 443.236 230.1C453.436 226.7 461.936 222.3 468.736 216.9C472.136 214.3 473.736 211.2 473.536 207.6C473.336 204 471.536 200.7 468.136 197.7C465.536 195.5 462.436 194.5 458.836 194.7C455.436 194.7 452.236 195.8 449.236 198C445.236 201 439.936 203.7 433.336 206.1C426.936 208.3 420.636 209.4 414.436 209.4C403.036 209.4 392.936 206.9 384.136 201.9C375.336 196.9 368.436 190.1 363.436 181.5C362.309 179.561 361.308 177.561 360.435 175.5H331.75C333.549 182.531 336.211 189.131 339.736 195.3C347.136 207.7 357.236 217.5 370.036 224.7ZM329.456 162.5C329.109 159.12 328.936 155.653 328.936 152.1C328.936 135.7 332.336 121.3 339.136 108.9C346.136 96.2999 355.736 86.4999 367.936 79.4999C380.136 72.2999 394.136 68.7 409.936 68.7C425.536 68.7 438.936 72.2 450.136 79.1999C461.336 85.9999 469.836 95.5 475.636 107.7C481.636 119.7 484.636 133.6 484.636 149.4C484.636 153.2 483.336 156.4 480.736 159C478.136 161.4 474.836 162.6 470.836 162.6H380V162.5H356.737H349.936H329.456ZM357.097 138.6C358.125 132.909 359.839 127.609 362.236 122.7C366.436 113.9 372.536 107 380.536 102C388.736 96.9999 398.536 94.4999 409.936 94.4999C419.936 94.4999 428.436 96.7999 435.436 101.4C442.436 106 447.836 112.3 451.636 120.3C454.337 125.844 456.129 131.944 457.011 138.6H357.097Z" fill="white"/>
<path fill-rule="evenodd" clip-rule="evenodd" d="M219.48 207.6C224.813 210.933 230.813 212.6 237.48 212.6H241.08C244.546 212.6 247.346 211.667 249.48 209.8C251.746 207.933 252.88 205.533 252.88 202.6C252.88 199.667 252.013 197.267 250.28 195.4C248.68 193.533 246.68 192.6 244.28 192.6H237.48C233.213 192.6 229.613 190.8 226.68 187.2C223.746 183.6 222.28 179.133 222.28 173.8V137.5H202.28V173.8C202.28 181.133 203.813 187.733 206.88 193.6C209.946 199.467 214.146 204.133 219.48 207.6ZM202.28 124.5H222.28V124.4H239.28C242.08 124.4 244.346 123.6 246.08 122C247.813 120.4 248.68 118.4 248.68 116C248.68 113.333 247.813 111.2 246.08 109.6C244.346 108 242.08 107.2 239.28 107.2H222.28V78.3999C222.28 75.4666 221.346 73.0666 219.48 71.1999C217.613 69.3332 215.213 68.3999 212.28 68.3999C209.346 68.3999 206.946 69.3332 205.08 71.1999C203.213 73.0666 202.28 75.4666 202.28 78.3999V107.2H193.08C190.28 107.2 188.013 108 186.28 109.6C184.546 111.2 183.68 113.333 183.68 116C183.68 118.4 184.546 120.4 186.28 122C188.013 123.6 190.28 124.4 193.08 124.4H202.28V124.5Z" fill="white"/>
<path fill-rule="evenodd" clip-rule="evenodd" d="M94.5 125.118C95.1612 124.726 95.845 124.353 96.5516 124C101.085 121.733 106.152 120.6 111.752 120.6C117.885 120.6 123.285 121.8 127.952 124.2C132.752 126.467 136.552 130 139.352 134.8C142.152 139.6 143.552 145.8 143.552 153.4V202.6C143.552 205.533 144.485 208 146.352 210C148.352 211.867 150.818 212.8 153.752 212.8C156.685 212.8 159.085 211.867 160.952 210C162.952 208 163.952 205.533 163.952 202.6V153.4C163.952 142.333 161.818 133 157.552 125.4C153.418 117.8 147.685 112.067 140.352 108.2C133.152 104.2 124.952 102.2 115.752 102.2C107.994 102.2 100.91 103.702 94.5 106.707V125.118ZM81.5 110.804C81.1082 108.908 80.2587 107.307 78.9516 106C77.0849 104.133 74.6182 103.2 71.5516 103.2C68.6182 103.2 66.1516 104.133 64.1516 106C62.2849 107.867 61.3516 110.333 61.3516 113.4V202.6C61.3516 205.533 62.2849 208 64.1516 210C66.1516 211.867 68.6182 212.8 71.5516 212.8C74.6182 212.8 77.0849 211.867 78.9516 210C80.2587 208.599 81.1082 206.97 81.5 205.112V146.2V115.772V110.804Z" fill="white"/>
<path d="M13.2 212.6C10.2667 212.6 7.8 211.667 5.8 209.8C3.93333 207.8 3 205.333 3 202.4V113.4C3 110.333 3.93333 107.867 5.8 106C7.8 104.133 10.2667 103.2 13.2 103.2C16.2667 103.2 18.7333 104.133 20.6 106C22.4667 107.867 23.4 110.333 23.4 113.4V202.4C23.4 205.333 22.4667 207.8 20.6 209.8C18.7333 211.667 16.2667 212.6 13.2 212.6ZM13.2 85.4C9.6 85.4 6.46667 84.1333 3.8 81.6C1.26667 78.9333 0 75.8 0 72.2C0 68.6 1.26667 65.5333 3.8 63C6.46667 60.3333 9.6 59 13.2 59C16.8 59 19.8667 60.3333 22.4 63C25.0667 65.5333 26.4 68.6 26.4 72.2C26.4 75.8 25.0667 78.9333 22.4 81.6C19.8667 84.1333 16.8 85.4 13.2 85.4Z" fill="white"/>
<path fill-rule="evenodd" clip-rule="evenodd" d="M944.819 257.8C946.686 258.6 948.286 259 949.619 259C953.219 259 955.819 256.933 957.419 252.8L1018.62 115.2C1021.29 109.333 1019.62 105.133 1013.62 102.6C1007.89 100.2 1003.69 101.8 1001.02 107.4L968.876 180.012L968.838 179.937L962.231 195.023L959.97 200.186L953.954 213.923L953.879 213.89L940.019 245.2C937.353 250.933 938.953 255.133 944.819 257.8ZM952.223 185.47L915.019 114.8C913.686 112.267 913.486 109.867 914.419 107.6C915.486 105.2 917.286 103.467 919.819 102.4C922.353 101.333 924.753 101.267 927.019 102.2C929.286 103 931.019 104.667 932.219 107.2L961.249 164.861L952.223 185.47Z" fill="white"/>
<path fill-rule="evenodd" clip-rule="evenodd" d="M871.546 206C876.879 209.333 882.879 211 889.546 211H893.146C896.613 211 899.413 210.066 901.546 208.2C903.813 206.333 904.946 203.933 904.946 201C904.946 198.066 904.079 195.666 902.346 193.8C900.746 191.933 898.746 191 896.346 191H889.546C885.279 191 881.679 189.2 878.746 185.6C875.813 182 874.346 177.533 874.346 172.2V135.5H854.346V172.2C854.346 179.533 855.879 186.133 858.946 192C862.013 197.866 866.213 202.533 871.546 206ZM894.116 122.5H874.346H854.346H842.376C840.81 122.134 839.467 121.434 838.346 120.4C836.613 118.8 835.746 116.8 835.746 114.4C835.746 111.733 836.613 109.6 838.346 108C840.079 106.4 842.346 105.6 845.146 105.6H854.346V76.7998C854.346 73.8665 855.279 71.4665 857.146 69.5998C859.013 67.7331 861.413 66.7998 864.346 66.7998C867.279 66.7998 869.679 67.7331 871.546 69.5998C873.413 71.4665 874.346 73.8665 874.346 76.7998V105.6H891.346C894.146 105.6 896.413 106.4 898.146 108C899.879 109.6 900.746 111.733 900.746 114.4C900.746 116.8 899.879 118.8 898.146 120.4C897.026 121.434 895.682 122.134 894.116 122.5Z" fill="white"/>
<path d="M801.595 211C798.661 211 796.195 210.067 794.195 208.2C792.328 206.2 791.395 203.733 791.395 200.8V111.8C791.395 108.733 792.328 106.267 794.195 104.4C796.195 102.533 798.661 101.6 801.595 101.6C804.661 101.6 807.128 102.533 808.995 104.4C810.861 106.267 811.795 108.733 811.795 111.8V200.8C811.795 203.733 810.861 206.2 808.995 208.2C807.128 210.067 804.661 211 801.595 211ZM801.595 83.7999C797.995 83.7999 794.861 82.5332 792.195 79.9999C789.661 77.3332 788.395 74.1999 788.395 70.5999C788.395 66.9999 789.661 63.9332 792.195 61.3999C794.861 58.7332 797.995 57.3999 801.595 57.3999C805.195 57.3999 808.261 58.7332 810.795 61.3999C813.461 63.9332 814.795 66.9999 814.795 70.5999C814.795 74.1999 813.461 77.3332 810.795 79.9999C808.261 82.5332 805.195 83.7999 801.595 83.7999Z" fill="white"/>
<path fill-rule="evenodd" clip-rule="evenodd" d="M712.5 114.88C712.375 115.018 712.252 115.156 712.129 115.295V111.6C712.129 108.267 711.262 105.8 709.529 104.2C707.929 102.467 705.462 101.6 702.129 101.6C698.929 101.6 696.462 102.467 694.729 104.2C692.996 105.933 692.129 108.4 692.129 111.6V201C692.129 204.333 692.996 206.867 694.729 208.6C696.462 210.2 698.929 211 702.129 211C705.462 211 707.929 210.133 709.529 208.4C711.262 206.667 712.129 204.2 712.129 201V142.6C712.129 141.048 712.253 139.565 712.5 138.15L712.5 114.88ZM725.5 122.092C728.07 120.851 730.946 119.886 734.129 119.2C740.929 117.733 748.596 117.867 757.129 119.6C758.862 120 760.462 120.067 761.929 119.8C763.396 119.533 764.662 118.933 765.729 118C766.929 116.933 767.729 115.467 768.129 113.6C769.062 110 767.529 106.933 763.529 104.4C759.662 101.733 753.729 100.4 745.729 100.4C738.431 100.4 731.688 101.953 725.5 105.06V122.092Z" fill="white"/>
<path d="M602.768 211.8C592.768 211.8 583.901 209.466 576.168 204.8C568.568 200 562.568 193.466 558.168 185.2C553.768 176.8 551.568 167.2 551.568 156.4C551.568 145.466 553.901 135.866 558.568 127.6C563.368 119.2 569.901 112.666 578.168 108C586.435 103.2 595.968 100.8 606.768 100.8C617.435 100.8 626.901 103.2 635.168 108C643.435 112.666 649.901 119.2 654.568 127.6C659.368 135.866 661.768 145.466 661.768 156.4H649.968C649.968 167.2 647.901 176.8 643.768 185.2C639.768 193.466 634.235 200 627.168 204.8C620.101 209.466 611.968 211.8 602.768 211.8ZM606.368 256.4C596.901 256.4 588.035 254.533 579.768 250.8C571.501 247.066 564.501 241.6 558.768 234.4C557.035 232.133 556.368 229.8 556.768 227.4C557.301 225 558.635 223.066 560.768 221.6C563.168 220 565.635 219.466 568.168 220C570.835 220.533 572.968 221.866 574.568 224C578.168 228.533 582.701 232.066 588.168 234.6C593.635 237.133 599.835 238.4 606.768 238.4C613.168 238.4 619.035 236.866 624.368 233.8C629.835 230.733 634.168 226.2 637.368 220.2C640.568 214.2 642.168 206.866 642.168 198.2V169.8L648.768 152.2L661.768 156.4V199.6C661.768 210.133 659.435 219.666 654.768 228.2C650.101 236.866 643.568 243.733 635.168 248.8C626.901 253.866 617.301 256.4 606.368 256.4ZM606.768 193.8C613.701 193.8 619.835 192.2 625.168 189C630.501 185.8 634.635 181.4 637.568 175.8C640.635 170.2 642.168 163.733 642.168 156.4C642.168 149.066 640.635 142.6 637.568 137C634.635 131.266 630.501 126.8 625.168 123.6C619.835 120.4 613.701 118.8 606.768 118.8C599.835 118.8 593.701 120.4 588.368 123.6C583.035 126.8 578.835 131.266 575.768 137C572.701 142.6 571.168 149.066 571.168 156.4C571.168 163.733 572.701 170.2 575.768 175.8C578.835 181.4 583.035 185.8 588.368 189C593.701 192.2 599.835 193.8 606.768 193.8Z" fill="white"/>
<defs>
<clipPath id="clip0_25_46">
<rect width="429" height="323" fill="white" transform="matrix(-1 0 0 1 579 0)"/>
</clipPath>
</defs>
</svg>
